<svg preserveAspectRatio="none" width="128" height="31" viewBox="0 0 128 31" fill="none" xmlns="http://www.w3.org/2000/svg">
<path d="M94.6052 30.0433L0 30.0433V30.0433C0 13.4509 13.4508 3.30806e-06 30.0433 3.30806e-06L127.741 3.30806e-06C127.741 7.96798 124.25 15.6096 118.035 21.2438C111.821 26.878 103.393 30.0433 94.6052 30.0433Z" fill="white"/>
<path d="M20.8364 12.9805C20.8647 12.2282 20.2271 11.5486 18.8902 11.526C17.9441 11.511 17.2449 11.8295 17.178 12.5868C17.1266 13.2212 17.3477 13.3391 17.7745 13.5121C17.9956 13.7403 19.7875 14.0136 20.15 14.0813C20.6642 14.1691 21.7851 14.3973 22.3816 14.9916C23.4716 16.105 22.9652 18.2942 21.7851 19.0415C20.9804 19.543 19.8775 19.6734 18.826 19.6859C18.3478 19.6859 17.2063 19.5355 16.5121 19.0415C16.1269 18.763 15.8088 18.4056 15.58 17.9945C15.3513 17.5834 15.2176 17.1285 15.1881 16.6617H17.0855C17.0893 17.0174 17.2339 17.3579 17.4891 17.6121C17.9159 18.0409 18.6177 18.1813 19.2656 18.1563C19.9135 18.1312 20.5228 17.9531 20.7696 17.7249C20.8773 17.6256 20.9637 17.5065 21.0239 17.3744C21.0842 17.2423 21.1171 17.0999 21.1206 16.9554C21.1242 16.8109 21.0985 16.6671 21.0448 16.5323C20.9912 16.3976 20.9108 16.2745 20.8082 16.1702C20.1706 15.5358 18.3066 15.5358 17.0855 15.132C16.0571 14.7885 15.219 14.0688 15.3732 12.5742C15.5275 11.0797 16.6175 10.019 18.9288 10.019C19.443 10.019 21.1989 10.0566 22.1193 11.195C22.6129 11.8144 22.7415 12.6745 22.6644 12.9805H20.8364Z" fill="#00586F"/>
<path d="M28.0117 19.395C27.8731 19.1941 27.8054 18.9547 27.8189 18.7129C27.1813 19.2947 26.6234 19.6859 25.5616 19.6859C24.1348 19.6859 23.4329 18.901 23.4843 17.5744C23.5229 16.6115 23.9137 15.6761 25.5205 15.4103C26.1419 15.3814 26.7571 15.2752 27.351 15.0944C27.5033 15.0324 27.6305 14.9231 27.7128 14.7835C27.795 14.6438 27.8278 14.4817 27.806 14.322C27.806 13.8907 27.441 13.7001 26.6106 13.7001C25.5822 13.7001 25.4434 14.322 25.4176 14.816H23.7054C23.7311 12.6243 25.6516 12.4237 26.6106 12.4237C27.175 12.4114 27.7372 12.4962 28.2714 12.6745C28.9732 12.9554 29.5311 13.5121 29.5311 14.6004V18.3443C29.5357 18.5 29.5746 18.6529 29.6451 18.7927C29.7156 18.9324 29.8162 19.0557 29.9399 19.1543V19.405L28.0117 19.395ZM27.806 16.1702C27.2918 16.4736 26.5874 16.446 26.1169 16.5363C25.9857 16.5494 25.859 16.5901 25.7454 16.6556C25.6319 16.721 25.5343 16.8097 25.4592 16.9156C25.3842 17.0214 25.3336 17.1418 25.3109 17.2685C25.2882 17.3953 25.2939 17.5253 25.3277 17.6497C25.4305 18.0534 25.7544 18.3443 26.5334 18.2189C27.6106 18.0534 27.8189 17.3212 27.8189 16.5613L27.806 16.1702Z" fill="#00586F"/>
<path d="M30.2432 12.5392H31.2253V11.8797C31.2253 10.854 31.7549 10.1694 32.9376 10.1694H34.0662V11.4885H33.4363C33.1792 11.4885 33.0455 11.6389 33.0455 11.9549V12.5392H34.1228V13.7178H33.0455V19.3951H31.2253V13.7178H30.2381L30.2432 12.5392Z" fill="#00586F"/>
<path d="M34.9119 12.5366H36.727V13.8657H36.7527C36.8709 13.4595 36.9609 13.2212 37.5959 12.7899C37.7733 12.6424 37.9808 12.5335 38.2046 12.4704C38.4285 12.4072 38.6636 12.3914 38.8943 12.4238V14.2318C38.123 14.144 36.9481 14.0437 36.727 15.5358V19.3951H34.9119V12.5366Z" fill="#00586F"/>
<path d="M43.7327 19.395C43.5922 19.1949 43.5235 18.9551 43.5373 18.7129C42.9023 19.2947 42.3444 19.6859 41.2801 19.6859C39.8532 19.6859 39.1539 18.901 39.2053 17.5745C39.2439 16.6115 39.6321 15.6762 41.2415 15.4104C41.863 15.3814 42.4781 15.2753 43.072 15.0944C43.2239 15.032 43.3505 14.9225 43.4323 14.7829C43.514 14.6433 43.5464 14.4814 43.5245 14.322C43.5245 13.8907 43.162 13.7002 42.3316 13.7002C41.3032 13.7002 41.1644 14.322 41.1387 14.8161H39.4264C39.4521 12.6244 41.37 12.4238 42.3316 12.4238C42.896 12.4116 43.4582 12.4965 43.9924 12.6745C44.6917 12.9554 45.2496 13.5121 45.2496 14.6004V18.3443C45.253 18.4997 45.2909 18.6526 45.3605 18.7924C45.4302 18.9322 45.53 19.0556 45.6532 19.1543V19.405L43.7327 19.395ZM43.5245 16.1702C43.0103 16.4736 42.3059 16.446 41.838 16.5363C41.7067 16.5495 41.5799 16.5902 41.4663 16.6556C41.3527 16.7211 41.2549 16.8097 41.1797 16.9155C41.1045 17.0212 41.0536 17.1416 41.0305 17.2683C41.0075 17.3951 41.0128 17.5252 41.0461 17.6497C41.1515 18.0534 41.4755 18.3443 42.2544 18.2189C43.3291 18.0534 43.5245 17.3212 43.5245 16.5614V16.1702Z" fill="#00586F"/>
<path d="M50.2888 10.2396H57.0761V11.8546H52.271V14.0186H56.4847V15.6336H52.271V19.548H50.2888V10.2396Z" fill="#00586F"/>
<path d="M59.6622 11.8395H57.7803V10.1719H59.6622V11.8395ZM57.7803 12.647H59.6622V19.548H57.7803V12.647Z" fill="#00586F"/>
<path d="M66.6603 13.0582C67.123 13.4318 67.3518 14.0612 67.3518 14.9138V19.548H65.4416V15.3627C65.4551 15.0789 65.4051 14.7957 65.2951 14.5327C65.1237 14.1783 64.7809 14.0019 64.2667 14.0036C63.9988 13.9846 63.7317 14.0496 63.5042 14.1889C63.2767 14.3283 63.1007 14.5348 63.0018 14.7784C62.8737 15.1124 62.8143 15.4677 62.827 15.8241V19.548H60.9785V12.6645H62.7782V13.6826C62.955 13.3969 63.1801 13.1426 63.444 12.9303C63.8625 12.6375 64.3692 12.4892 64.8838 12.509C65.5254 12.4828 66.1554 12.6811 66.6603 13.0682" fill="#00586F"/>
<path d="M71.3934 15.3552C71.6454 15.3343 71.8934 15.2812 72.1312 15.1973C72.2423 15.1643 72.34 15.0982 72.4106 15.0082C72.4812 14.9182 72.521 14.8089 72.5246 14.6957C72.5374 14.5799 72.5152 14.4629 72.4609 14.3591C72.4065 14.2554 72.3224 14.1693 72.2187 14.1114C71.9387 13.9863 71.6314 13.9304 71.324 13.9485C71.1532 13.9314 70.9807 13.9507 70.8183 14.0048C70.6559 14.0589 70.5074 14.1466 70.383 14.2619C70.2407 14.4443 70.1519 14.661 70.1259 14.8888H68.3494C68.3622 14.3576 68.5416 13.843 68.8636 13.4143C69.3521 12.8125 70.1953 12.5116 71.3831 12.5116C72.0995 12.4981 72.8089 12.6511 73.4527 12.9579C74.0543 13.2538 74.3551 13.8172 74.3551 14.6481V17.7927C74.3551 18.0133 74.3602 18.2792 74.3705 18.5901C74.3621 18.7582 74.4002 18.9254 74.4811 19.0741C74.5522 19.1677 74.6482 19.2405 74.7587 19.2847V19.5355H72.7457C72.692 19.4122 72.6523 19.2835 72.6274 19.1518C72.6069 19.0314 72.5889 18.9011 72.576 18.7406C72.3186 19.0127 72.0204 19.2452 71.6916 19.4302C71.2811 19.6629 70.8141 19.7841 70.3393 19.7812C69.763 19.7976 69.2007 19.6056 68.7608 19.2421C68.5483 19.0493 68.3821 18.8132 68.2741 18.5504C68.1661 18.2877 68.1189 18.005 68.136 17.7225C68.136 16.8732 68.472 16.258 69.1438 15.8768C69.6533 15.6292 70.2065 15.4786 70.7738 15.433L71.3934 15.3552ZM72.5195 16.1953C72.4063 16.2655 72.2867 16.3251 72.1621 16.3733C72.0007 16.4284 71.8347 16.4696 71.6659 16.4962L71.2468 16.574C70.9525 16.6109 70.6666 16.6956 70.401 16.8247C70.2627 16.9017 70.149 17.0147 70.0727 17.1511C69.9964 17.2875 69.9606 17.4419 69.9691 17.5971C69.9563 17.7212 69.9729 17.8465 70.0174 17.9634C70.062 18.0804 70.1334 18.1858 70.2262 18.2716C70.4104 18.4109 70.6385 18.4836 70.8715 18.4773C71.2695 18.479 71.6579 18.3589 71.9821 18.1337C72.3189 17.903 72.4963 17.4867 72.5092 16.8799L72.5195 16.1953Z" fill="#00586F"/>
<path d="M81.1912 13.0582C81.6488 13.4319 81.8802 14.0613 81.8802 14.9139V19.548H79.97V15.3628C79.9847 15.0789 79.9347 14.7954 79.8235 14.5327C79.6435 14.1792 79.3093 14.0036 78.7951 14.0036C78.5272 13.9847 78.26 14.0496 78.0326 14.189C77.8051 14.3283 77.6291 14.5349 77.5302 14.7785C77.4011 15.1123 77.3408 15.4676 77.3528 15.8242V19.548H75.5069V12.6645H77.3065V13.6826C77.4833 13.397 77.7085 13.1426 77.9724 12.9304C78.3916 12.637 78.8992 12.4887 79.4147 12.5091C80.0561 12.4839 80.6858 12.6821 81.1912 13.0683" fill="#00586F"/>
<path d="M87.3433 15.1421C87.3132 14.8913 87.2253 14.6504 87.0862 14.4375C86.9713 14.2924 86.821 14.1777 86.649 14.1037C86.4771 14.0297 86.2889 13.9988 86.1016 14.0137C85.8134 14.0031 85.53 14.0874 85.2968 14.2529C85.0637 14.4185 84.8944 14.6557 84.8161 14.9265C84.6809 15.336 84.6191 15.7653 84.6336 16.1953C84.6182 16.6065 84.6801 17.017 84.8161 17.4065C84.8919 17.667 85.0559 17.8949 85.2814 18.0529C85.5069 18.2109 85.7806 18.2898 86.0579 18.2767C86.2281 18.2933 86.4 18.2709 86.5598 18.2113C86.7196 18.1516 86.8629 18.0564 86.9783 17.9331C87.1699 17.6706 87.2837 17.3618 87.3073 17.0404H89.1867C89.136 17.6042 88.926 18.1433 88.58 18.5976C88.0041 19.3876 87.1479 19.7787 86.009 19.7787C84.8701 19.7787 84.0474 19.4528 83.5127 18.7957C82.9538 18.0584 82.6707 17.1566 82.7105 16.2405C82.7105 15.0619 83.0062 14.1416 83.6026 13.482C84.1991 12.8225 85.0244 12.5091 86.0682 12.5091C86.8392 12.4771 87.6013 12.6805 88.2483 13.0909C88.8139 13.4795 89.1507 14.1666 89.251 15.1521L87.3433 15.1421Z" fill="#00586F"/>
<path d="M94.609 12.7874C95.1062 13.007 95.5283 13.3612 95.825 13.808C96.1204 14.2332 96.3121 14.7187 96.3855 15.2273C96.4416 15.6807 96.4614 16.1376 96.4446 16.594H91.3028C91.3337 17.2911 91.5805 17.7826 92.0432 18.0635C92.354 18.2423 92.7112 18.3294 93.0716 18.3143C93.4418 18.3304 93.806 18.2185 94.1 17.9983C94.2574 17.8655 94.3874 17.7047 94.483 17.5243H96.3392C96.2611 18.0039 96.0225 18.4448 95.6605 18.7782C95.0281 19.4469 94.1471 19.7812 93.0176 19.7812C92.1157 19.792 91.2389 19.4918 90.5418 18.9336C89.8297 18.3669 89.4697 17.4466 89.4697 16.1752C89.4697 14.9799 89.7937 14.0646 90.4415 13.4294C90.7703 13.1092 91.1633 12.8588 91.596 12.694C92.0287 12.5291 92.4917 12.4533 92.9559 12.4714C93.524 12.4633 94.0874 12.5727 94.609 12.7924V12.7874ZM91.8427 14.3547C91.5665 14.639 91.3931 15.0035 91.3491 15.3928H94.5473C94.5448 15.1927 94.4997 14.9952 94.4147 14.8131C94.3297 14.6309 94.2068 14.4679 94.0537 14.3346C93.7432 14.0895 93.3526 13.9613 92.9533 13.9735C92.7515 13.9618 92.5493 13.9895 92.3586 14.0549C92.1679 14.1204 91.9925 14.2223 91.8427 14.3547" fill="#00586F"/>
<path d="M98.8253 11.8395H96.946V10.1719H98.8253V11.8395ZM96.946 12.647H98.8253V19.548H96.946V12.647Z" fill="#00586F"/>
<path d="M104.06 12.5091L104.216 12.5217V14.3522C104.101 14.3522 103.998 14.3522 103.905 14.3522H103.689C102.946 14.3522 102.45 14.588 102.196 15.0594C102.03 15.4462 101.957 15.8647 101.982 16.2831V19.5681H100.139V12.647H101.882V13.8658C102.077 13.5145 102.329 13.1961 102.628 12.9229C103.013 12.6297 103.494 12.4827 103.982 12.5091H104.07" fill="#00586F"/>
<path d="M107.618 15.3552C107.87 15.3343 108.118 15.2812 108.356 15.1972C108.467 15.1643 108.564 15.0981 108.635 15.0082C108.705 14.9182 108.745 14.8089 108.749 14.6957C108.762 14.5799 108.74 14.4629 108.685 14.3591C108.631 14.2553 108.547 14.1693 108.443 14.1114C108.162 13.986 107.854 13.93 107.546 13.9484C107.375 13.9321 107.203 13.9517 107.042 14.0058C106.88 14.0598 106.732 14.1472 106.607 14.2619C106.466 14.4449 106.377 14.6613 106.35 14.8888H104.576C104.588 14.3574 104.767 13.8423 105.09 13.4143C105.582 12.8125 106.42 12.5116 107.613 12.5116C108.325 12.4997 109.03 12.6526 109.669 12.9579C110.271 13.2538 110.572 13.8172 110.572 14.6481V17.7927C110.572 18.0133 110.572 18.2791 110.585 18.5901C110.58 18.7581 110.619 18.9245 110.698 19.0741C110.769 19.1676 110.865 19.2405 110.975 19.2847V19.5355H108.962C108.909 19.4118 108.868 19.2833 108.841 19.1518C108.818 19.0156 108.802 18.8784 108.793 18.7405C108.535 19.0121 108.237 19.2446 107.908 19.4302C107.5 19.6606 107.037 19.7817 106.566 19.7812C105.987 19.8024 105.421 19.6109 104.98 19.2446C104.766 19.053 104.598 18.8171 104.49 18.5542C104.381 18.2912 104.334 18.0079 104.353 17.725C104.353 16.8749 104.687 16.2605 105.36 15.8793C105.869 15.6324 106.421 15.4818 106.988 15.4355L107.618 15.3552ZM108.744 16.1953C108.631 16.2655 108.511 16.3251 108.386 16.3733C108.225 16.4281 108.059 16.4692 107.89 16.4962L107.469 16.5739C107.175 16.612 106.89 16.6967 106.625 16.8247C106.487 16.9018 106.374 17.0149 106.298 17.1514C106.222 17.2878 106.187 17.4421 106.196 17.5971C106.184 17.7212 106.2 17.8464 106.245 17.9632C106.289 18.0801 106.361 18.1855 106.453 18.2716C106.637 18.4089 106.864 18.4814 107.096 18.4772C107.495 18.4794 107.884 18.3592 108.209 18.1337C108.546 17.903 108.723 17.4867 108.723 16.8799L108.744 16.1953Z" fill="#00586F"/>
</svg>
